<svg width="300" height="263" viewBox="0 0 300 263" fill="none" xmlns="http://www.w3.org/2000/svg">
<g filter="url(#filter0_d_62_205)">
<path d="M26.8097 254.273L4.01335 86.1528L294.418 76.1037L265.279 241.937L26.8097 254.273Z" fill="#AA0606"/>
<path d="M295.181 87.1637C294.188 133.418 232.212 179.906 144.871 177.154C57.5302 174.403 3.01985 132.407 4.01335 86.1528C5.00685 39.8987 61.3326 -2.62505 148.673 0.126618C236.014 2.87829 296.175 40.9096 295.181 87.1637Z" fill="#E8E8E8"/>
<path d="M138.511 69.32L139.254 66.8645L142.416 67.1993C143.331 67.2962 144.177 67.2851 144.954 67.1663C145.77 67.0516 146.508 66.7275 147.168 66.194C147.832 65.6207 148.349 64.7302 148.718 63.5223L155.697 42.0577C156.179 40.54 156.681 39.0245 157.204 37.5111C157.77 35.9621 158.334 34.433 158.896 32.9237L158.657 32.8985C156.462 34.637 154.609 35.9895 153.099 36.9559C151.633 37.8867 150.264 38.2848 148.991 38.15C148.155 38.0616 147.57 37.698 147.236 37.0592C146.945 36.3849 146.848 35.5903 146.945 34.6754C147.885 34.5336 148.83 34.352 149.778 34.1306C150.771 33.8737 151.855 33.5058 153.032 33.027C154.209 32.5483 155.604 31.9116 157.217 31.1169L162.378 28.5259L166.197 28.9301L154.66 64.3926C154.594 64.6271 154.503 64.9191 154.386 65.2687C154.312 65.5827 154.265 65.8391 154.244 66.038C154.139 67.0325 154.467 67.7309 155.229 68.1333C156.035 68.5002 157.054 68.7489 158.287 68.8795L161.509 69.2206L160.707 71.6697L138.511 69.32Z" fill="#4E0909"/>
</g>
<defs>
<filter id="filter0_d_62_205" x="0" y="0" width="299.193" height="262.273" filterUnits="userSpaceOnUse" color-interpolation-filters="sRGB">
<feFlood flood-opacity="0" result="BackgroundImageFix"/>
<feColorMatrix in="SourceAlpha" type="matrix" values="0 0 0 0 0 0 0 0 0 0 0 0 0 0 0 0 0 0 127 0" result="hardAlpha"/>
<feOffset dy="4"/>
<feGaussianBlur stdDeviation="2"/>
<feComposite in2="hardAlpha" operator="out"/>
<feColorMatrix type="matrix" values="0 0 0 0 0 0 0 0 0 0 0 0 0 0 0 0 0 0 0.25 0"/>
<feBlend mode="normal" in2="BackgroundImageFix" result="effect1_dropShadow_62_205"/>
<feBlend mode="normal" in="SourceGraphic" in2="effect1_dropShadow_62_205" result="shape"/>
</filter>
</defs>
</svg>
