<svg width="506" height="503" viewBox="0 0 506 503" fill="none" xmlns="http://www.w3.org/2000/svg">
<g filter="url(#filter0_d_62_121)">
<path d="M27.2383 113.139L4 324.116L124.833 153.711L336.093 128.551L492.611 363.495L501.5 172.506L392.188 11.9356L152.996 0L27.2383 113.139Z" fill="#AA0606"/>
<path d="M118.402 477.779C106.164 475.199 43.0107 362.175 4 324.116L85.7094 157.914L349.724 128.551L492.611 363.495L372.806 494.782C299.786 497.089 130.64 480.359 118.402 477.779Z" fill="#E8E8E8"/>
<path d="M131.832 257.722C130.128 257.549 128.645 257.254 127.383 256.838C126.12 256.421 125.057 255.615 124.194 254.42C123.377 253.23 123.076 251.491 123.292 249.202C123.594 246.008 124.921 241.81 127.272 236.608C129.669 231.411 132.644 226.249 136.197 221.121C133.881 221.031 132.028 221.204 130.638 221.641C129.249 222.078 128.291 222.871 127.763 224.021C127.948 224.04 128.109 224.297 128.249 224.793C128.434 225.293 128.502 225.805 128.452 226.33C128.371 227.188 127.937 227.842 127.151 228.292C126.369 228.694 125.425 228.839 124.32 228.727C123.031 228.597 122.029 228.134 121.313 227.339C120.598 226.545 120.303 225.48 120.43 224.145C120.583 222.524 121.321 221.106 122.645 219.892C124.014 218.683 125.817 217.807 128.053 217.263C130.294 216.672 132.727 216.509 135.352 216.775C136.319 216.873 137.51 217.066 138.924 217.353C143.285 211.537 147.746 206.886 152.306 203.401C156.917 199.873 161.133 198.302 164.955 198.689C167.165 198.913 168.953 199.431 170.317 200.243L154.499 251.786L144.552 250.778L152.324 225.354C150.697 224.371 149.187 223.616 147.796 223.09C146.404 222.564 144.909 222.148 143.311 221.842C140.132 227.441 137.4 233.229 135.115 239.208C132.881 245.143 131.59 249.947 131.243 253.618C131.072 255.43 131.268 256.798 131.832 257.722ZM159.087 203.222C157.004 204.118 154.738 205.958 152.29 208.743C149.892 211.484 147.48 214.875 145.052 218.913C148.305 219.916 151.035 221.035 153.243 222.27L159.087 203.222Z" fill="#4E0909"/>
<path d="M172.83 254.076C169.698 253.759 167.378 252.73 165.869 250.988C164.365 249.199 163.75 246.85 164.024 243.942C164.16 242.511 164.449 241.169 164.893 239.914L175.67 204.829L186.028 204.434L181.192 220.191C182.558 219.511 183.667 219.094 184.518 218.94C185.374 218.738 186.216 218.678 187.045 218.762C192.479 219.313 194.811 223.665 194.04 231.819C193.729 235.109 192.774 238.574 191.175 242.215C189.626 245.813 187.298 248.803 184.191 251.184C181.13 253.569 177.343 254.533 172.83 254.076ZM177.353 247.53C178.781 247.675 180.202 246.904 181.617 245.218C183.036 243.485 184.242 241.296 185.236 238.653C186.234 235.962 186.852 233.353 187.091 230.826C187.271 228.918 187.102 227.265 186.583 225.864C186.065 224.464 185.23 223.705 184.079 223.589C183.388 223.519 182.594 223.559 181.696 223.708C180.849 223.815 180.245 224.067 179.882 224.463L174.366 242.245C174.174 242.804 174.053 243.345 174.003 243.869C173.796 246.063 174.913 247.283 177.353 247.53Z" fill="#4E0909"/>
<path d="M204.433 257.133C201.026 256.788 198.417 255.609 196.609 253.597C194.8 251.584 194.08 248.623 194.449 244.713C194.756 241.471 195.741 237.936 197.404 234.109C199.067 230.282 201.462 227.083 204.587 224.511C207.717 221.891 211.446 220.801 215.775 221.24C221.669 221.837 224.256 225.95 223.535 233.579L223.528 233.651C223.662 233.712 223.913 233.762 224.281 233.799C225.801 233.953 227.589 233.725 229.646 233.115C231.707 232.457 233.6 231.614 235.324 230.585L235.763 232.579C234.288 233.922 232.419 235.009 230.156 235.838C227.943 236.625 225.55 237.105 222.976 237.277C222.198 241.579 220.896 245.274 219.07 248.363C217.244 251.451 215.05 253.756 212.489 255.278C209.928 256.799 207.242 257.418 204.433 257.133ZM207.805 250.976C208.91 251.088 210.076 250.556 211.303 249.381C212.534 248.158 213.67 246.468 214.711 244.311C215.756 242.106 216.593 239.639 217.223 236.911C216.007 236.499 215.48 235.435 215.642 233.718C215.826 231.763 216.662 230.548 218.148 230.073C218.205 228.49 218.076 227.394 217.761 226.784C217.451 226.127 216.836 225.752 215.915 225.658C214.395 225.505 212.814 226.5 211.17 228.644C209.526 230.788 208.116 233.413 206.939 236.519C205.762 239.625 205.059 242.394 204.829 244.826C204.613 247.115 204.72 248.69 205.15 249.552C205.584 250.366 206.469 250.841 207.805 250.976Z" fill="#4E0909"/>
<path d="M231.528 260.023C229.318 259.799 227.59 258.902 226.343 257.331C225.143 255.765 224.678 253.552 224.948 250.691C225.061 249.499 225.392 247.968 225.94 246.098L232.807 223.615L242.753 224.622L235.482 248.437C235.276 249.138 235.144 249.798 235.086 250.418C234.901 252.373 235.499 253.421 236.881 253.561C238.17 253.691 239.327 253.255 240.352 252.252C241.381 251.201 242.264 249.725 243.002 247.826L249.868 225.343L259.815 226.351L252.544 250.165C252.292 250.862 252.128 251.615 252.051 252.426C251.961 253.379 252.103 254.092 252.477 254.563C252.901 254.991 253.62 255.256 254.633 255.359C255.922 255.49 257.082 255.029 258.111 253.978C259.186 252.932 260.09 251.483 260.823 249.632L263.724 249.926C261.533 254.903 259.084 258.193 256.376 259.796C253.718 261.356 251.122 262.008 248.59 261.751C246.61 261.551 245.075 260.817 243.986 259.552C242.943 258.291 242.412 256.528 242.393 254.264C240.58 256.728 238.753 258.348 236.913 259.124C235.119 259.905 233.324 260.205 231.528 260.023Z" fill="#4E0909"/>
<path d="M266.057 263.521C263.709 263.283 262.029 262.366 261.017 260.772C260.052 259.181 259.684 257.171 259.914 254.739C260.031 253.499 260.288 252.249 260.686 250.99L267.134 229.981L264.855 229.75L265.678 226.945L267.957 227.176L270.962 217.515L281.32 217.121C280.735 218.891 280.403 219.94 280.325 220.269C279.877 221.572 279.07 224.21 277.904 228.183L282.048 228.603L281.225 231.408L277.081 230.988L270.633 251.998C270.304 253.023 270.11 253.846 270.051 254.466C269.889 256.182 270.614 257.122 272.225 257.286C273.054 257.37 273.66 257.359 274.042 257.253C272.859 259.925 271.601 261.675 270.268 262.503C268.934 263.331 267.531 263.67 266.057 263.521Z" fill="#4E0909"/>
<path d="M335.626 270.568C332.817 270.284 330.817 269.311 329.626 267.65C328.485 265.946 328.023 263.949 328.239 261.66C328.334 260.659 328.555 259.55 328.902 258.334C329.254 257.07 329.602 255.853 329.944 254.685C330.333 253.52 330.59 252.776 330.713 252.452C331.239 250.82 331.74 249.21 332.216 247.622C332.691 246.033 332.976 244.738 333.071 243.737C333.301 241.305 332.587 240.005 330.929 239.837C329.732 239.716 328.614 240.228 327.576 241.375C326.542 242.474 325.657 243.973 324.919 245.872L318.053 268.355L308.106 267.347L315.48 243.182C315.672 242.624 315.798 242.035 315.856 241.415C316.055 239.317 315.463 238.198 314.082 238.058C312.792 237.928 311.605 238.433 310.521 239.575C309.488 240.674 308.6 242.196 307.858 244.143L300.992 266.626L291.045 265.619L301.746 230.599L311.693 231.606L310.581 235.249C313.187 232.769 316.124 231.694 319.394 232.025C323.446 232.436 325.624 234.727 325.927 238.897C328.843 235.101 332.235 233.398 336.103 233.79C338.451 234.028 340.253 234.885 341.509 236.36C342.764 237.835 343.263 239.931 343.006 242.649C342.876 244.032 342.568 245.565 342.084 247.249C341.604 248.886 340.949 250.889 340.121 253.26C339.613 254.701 339.13 256.121 338.673 257.518C338.266 258.873 338.024 259.956 337.947 260.766C337.857 261.72 337.995 262.48 338.359 263.047C338.724 263.613 339.413 263.948 340.426 264.05C341.808 264.19 342.96 263.802 343.884 262.884C344.812 261.919 345.792 260.406 346.823 258.344L349.724 258.638C347.525 263.71 345.212 267.038 342.784 268.622C340.407 270.162 338.021 270.811 335.626 270.568Z" fill="#4E0909"/>
<path d="M355.309 272.562C351.948 272.222 349.409 271.05 347.692 269.047C345.979 266.996 345.308 264.015 345.677 260.105C345.988 256.815 346.952 253.254 348.57 249.423C350.187 245.591 352.535 242.387 355.614 239.811C358.698 237.187 362.405 236.094 366.733 236.532C371.799 237.045 374.115 239.591 373.683 244.168C373.43 246.839 372.462 249.219 370.776 251.311C369.091 253.403 366.963 255.017 364.391 256.152C361.824 257.24 359.151 257.74 356.37 257.65C356.178 258.69 356.065 259.401 356.029 259.782C355.655 263.74 356.895 265.863 359.75 266.152C361.04 266.283 362.455 266.065 363.996 265.499C365.537 264.933 366.958 264.163 368.259 263.187C366.349 270.118 362.033 273.243 355.309 272.562ZM357.178 254.266C358.932 254.396 360.623 253.965 362.251 252.975C363.925 251.989 365.305 250.661 366.393 248.99C367.531 247.276 368.193 245.441 368.377 243.486C368.562 241.531 368.079 240.496 366.928 240.379C365.316 240.216 363.56 241.578 361.66 244.467C359.81 247.312 358.316 250.579 357.178 254.266Z" fill="#4E0909"/>
<path d="M247.849 334.122C244.456 334.684 241.491 333.918 238.955 331.824C236.458 329.723 234.825 326.345 234.054 321.688C233.649 319.241 233.442 316.64 233.432 313.885C233.455 311.083 233.711 308.345 234.201 305.669C234.723 302.947 235.505 300.446 236.547 298.165C237.628 295.878 239.015 293.966 240.706 292.429C242.438 290.886 244.527 289.912 246.973 289.507C249.065 289.161 251.037 289.321 252.891 289.987C254.745 290.653 256.331 291.911 257.651 293.76C259.004 295.564 259.941 298.044 260.464 301.201C260.862 303.608 261.069 306.209 261.086 309.004C261.103 311.799 260.876 314.594 260.406 317.388C259.929 320.143 259.18 322.72 258.158 325.119C257.136 327.518 255.766 329.528 254.047 331.151C252.362 332.727 250.296 333.717 247.849 334.122ZM247.784 330.788C249.442 330.514 250.801 329.661 251.861 328.228C252.915 326.757 253.706 324.923 254.235 322.727C254.803 320.525 255.16 318.154 255.308 315.616C255.449 313.039 255.432 310.487 255.258 307.962C255.122 305.43 254.882 303.118 254.536 301.027C254.176 298.856 253.649 297.139 252.953 295.876C252.258 294.612 251.404 293.74 250.392 293.259C249.373 292.738 248.213 292.586 246.91 292.801C245.253 293.076 243.897 293.949 242.843 295.42C241.822 296.846 241.028 298.66 240.46 300.863C239.885 303.025 239.528 305.396 239.386 307.973C239.239 310.511 239.233 313.046 239.368 315.578C239.497 318.071 239.734 320.363 240.08 322.454C240.622 325.73 241.57 328.026 242.923 329.343C244.27 330.62 245.89 331.102 247.784 330.788Z" fill="#4E0909"/>
</g>
<defs>
<filter id="filter0_d_62_121" x="0" y="0" width="505.5" height="503" filterUnits="userSpaceOnUse" color-interpolation-filters="sRGB">
<feFlood flood-opacity="0" result="BackgroundImageFix"/>
<feColorMatrix in="SourceAlpha" type="matrix" values="0 0 0 0 0 0 0 0 0 0 0 0 0 0 0 0 0 0 127 0" result="hardAlpha"/>
<feOffset dy="4"/>
<feGaussianBlur stdDeviation="2"/>
<feComposite in2="hardAlpha" operator="out"/>
<feColorMatrix type="matrix" values="0 0 0 0 0 0 0 0 0 0 0 0 0 0 0 0 0 0 0.25 0"/>
<feBlend mode="normal" in2="BackgroundImageFix" result="effect1_dropShadow_62_121"/>
<feBlend mode="normal" in="SourceGraphic" in2="effect1_dropShadow_62_121" result="shape"/>
</filter>
</defs>
</svg>
